<svg xmlns="http://www.w3.org/2000/svg" version="1.1" xmlns:xlink="http://www.w3.org/1999/xlink" xmlns:svgjs="http://svgjs.dev/svgjs" width="1000" height="1088" viewBox="0 0 1000 1088"><g transform="matrix(1,0,0,1,-1.0871706496157003,0.44050570436809267)"><svg viewBox="0 0 227 247" data-background-color="#4b91f1" preserveAspectRatio="xMidYMid meet" height="1088" width="1000" xmlns="http://www.w3.org/2000/svg" xmlns:xlink="http://www.w3.org/1999/xlink"><g id="tight-bounds" transform="matrix(1,0,0,1,0.2467878627968787,-0.09999548807087422)"><svg viewBox="0 0 226.5064243997404 247.2" height="247.2" width="226.5064243997404"><g><svg viewBox="0 0 226.5064243997404 247.2" height="247.2" width="226.5064243997404"><g><svg viewBox="0 0 226.5064243997404 247.2" height="247.2" width="226.5064243997404"><g id="textblocktransform"><svg viewBox="0 0 226.5064243997404 247.2" height="247.2" width="226.5064243997404" id="textblock"><g><svg viewBox="0 0 226.5064243997404 247.2" height="247.2" width="226.5064243997404"><g transform="matrix(1,0,0,1,0,0)"><svg width="226.5064243997404" viewBox="1.9800000190734863 -35.939998626708984 34.470001220703125 37.619998931884766" height="247.2" data-palette-color="#915eff"><path d="M26-32.15L26-32.15Q26-33.03 26.16-33.36 26.32-33.69 26.81-33.81L26.81-33.81 35.21-35.84Q35.52-35.94 35.86-35.94L35.86-35.94Q36.21-35.94 36.33-35.73 36.45-35.52 36.45-34.89L36.45-34.89 36.16-31.05Q36.04-29.37 35.89-27.71 35.74-26.05 35.45-24.8L35.45-24.8 35.01-21.34Q34.81-19.8 34.64-18.01 34.47-16.21 34.28-13.99L34.28-13.99 33.13-1.95Q33.11-1.73 33.03-1.51 32.96-1.29 32.71-1.2L32.71-1.2Q32.54-1.12 31.92-0.88 31.3-0.63 30.44-0.32 29.59 0 28.61 0.35 27.64 0.71 26.76 1 25.88 1.29 25.2 1.49 24.51 1.68 24.27 1.68L24.27 1.68Q23.93 1.68 23.67 1.5 23.41 1.32 23.41 0.81L23.41 0.81Q23.41-2.15 23.75-5.24 24.1-8.33 24.37-11.38L24.37-11.38Q24.41-11.72 24.4-12.01 24.39-12.3 24.44-12.65L24.44-12.65 15.5-12.65 14.5-1.95Q14.48-1.73 14.42-1.53 14.36-1.32 14.09-1.2L14.09-1.2Q13.99-1.15 13.12-0.84 12.26-0.54 11.12-0.13 9.99 0.27 8.87 0.67 7.76 1.07 7.18 1.29L7.18 1.29Q6.88 1.42 6.46 1.55 6.03 1.68 5.62 1.68L5.62 1.68Q5.27 1.68 5.02 1.49 4.76 1.29 4.76 0.78L4.76 0.78Q4.76-0.39 4.85-1.89 4.93-3.39 5.05-5.04 5.18-6.69 5.35-8.42 5.52-10.16 5.69-11.84L5.69-11.84 5.74-12.55Q3.76-12.55 2.87-12.66 1.98-12.77 1.98-13.23L1.98-13.23Q1.98-13.55 2.34-14.06L2.34-14.06Q2.83-14.75 3.48-15.71 4.13-16.67 4.72-17.61 5.32-18.55 5.8-19.3 6.27-20.04 6.42-20.26L6.42-20.26 6.98-26.15Q6.98-26.2 7.03-26.88 7.08-27.56 7.15-28.5 7.23-29.44 7.31-30.44 7.4-31.45 7.47-32.15L7.47-32.15Q7.52-33.01 7.6-33.35 7.69-33.69 8.18-33.81L8.18-33.81 16.48-35.84Q16.8-35.94 17.14-35.94L17.14-35.94Q17.48-35.94 17.6-35.73 17.72-35.52 17.72-34.89L17.72-34.89Q17.55-33.13 17.46-31.69 17.36-30.25 17.25-29 17.14-27.76 17.02-26.64 16.89-25.51 16.67-24.34L16.67-24.34 16.19-20.56 25.05-20.65Q25.27-23.9 25.54-26.17 25.81-28.44 25.88-29.76L25.88-29.76Q25.95-31.01 25.98-31.54 26-32.08 26-32.15Z" opacity="1" transform="matrix(1,0,0,1,0,0)" fill="#915eff" class="wordmark-text-0" data-fill-palette-color="primary" id="text-0"></path></svg></g></svg></g></svg></g></svg></g></svg></g><defs></defs></svg><rect width="226.5064243997404" height="247.2" fill="none" stroke="none" visibility="hidden"></rect></g></svg></g></svg>